<?xml version="1.0" encoding="utf-8" standalone="no"?>
<!DOCTYPE svg PUBLIC "-//W3C//DTD SVG 1.1//EN"
  "http://www.w3.org/Graphics/SVG/1.1/DTD/svg11.dtd">
<svg xmlns:xlink="http://www.w3.org/1999/xlink" width="460.8pt" height="345.6pt" viewBox="0 0 460.8 345.6" xmlns="http://www.w3.org/2000/svg" version="1.1">
 <metadata>
  <rdf:RDF xmlns:dc="http://purl.org/dc/elements/1.1/" xmlns:cc="http://creativecommons.org/ns#" xmlns:rdf="http://www.w3.org/1999/02/22-rdf-syntax-ns#">
   <cc:Work>
    <dc:type rdf:resource="http://purl.org/dc/dcmitype/StillImage"/>
    <dc:date>2023-10-01T19:52:57.156517</dc:date>
    <dc:format>image/svg+xml</dc:format>
    <dc:creator>
     <cc:Agent>
      <dc:title>Matplotlib v3.8.0, https://matplotlib.org/</dc:title>
     </cc:Agent>
    </dc:creator>
   </cc:Work>
  </rdf:RDF>
 </metadata>
 <defs>
  <style type="text/css">*{stroke-linejoin: round; stroke-linecap: butt}</style>
 </defs>
 <g id="figure_1">
  <g id="patch_1">
   <path d="M 0 345.6 
L 460.8 345.6 
L 460.8 0 
L 0 0 
z
" style="fill: #ffffff"/>
  </g>
  <g id="axes_1">
   <g id="patch_2">
    <path d="M 57.6 307.584 
L 414.72 307.584 
L 414.72 41.472 
L 57.6 41.472 
z
" style="fill: #ffffff"/>
   </g>
   <g id="matplotlib.axis_1">
    <g id="xtick_1">
     <g id="line2d_1">
      <defs>
       <path id="m64fc7024d6" d="M 0 0 
L 0 3.5 
" style="stroke: #000000; stroke-width: 0.8"/>
      </defs>
      <g>
       <use xlink:href="#m64fc7024d6" x="73.832727" y="307.584" style="stroke: #000000; stroke-width: 0.8"/>
      </g>
     </g>
     <g id="text_1">
      <!-- 0 -->
      <g transform="translate(70.651477 322.182437) scale(0.1 -0.1)">
       <defs>
        <path id="DejaVuSans-30" d="M 2034 4250 
Q 1547 4250 1301 3770 
Q 1056 3291 1056 2328 
Q 1056 1369 1301 889 
Q 1547 409 2034 409 
Q 2525 409 2770 889 
Q 3016 1369 3016 2328 
Q 3016 3291 2770 3770 
Q 2525 4250 2034 4250 
z
M 2034 4750 
Q 2819 4750 3233 4129 
Q 3647 3509 3647 2328 
Q 3647 1150 3233 529 
Q 2819 -91 2034 -91 
Q 1250 -91 836 529 
Q 422 1150 422 2328 
Q 422 3509 836 4129 
Q 1250 4750 2034 4750 
z
" transform="scale(0.015625)"/>
       </defs>
       <use xlink:href="#DejaVuSans-30"/>
      </g>
     </g>
    </g>
    <g id="xtick_2">
     <g id="line2d_2">
      <g>
       <use xlink:href="#m64fc7024d6" x="138.763636" y="307.584" style="stroke: #000000; stroke-width: 0.8"/>
      </g>
     </g>
     <g id="text_2">
      <!-- 5 -->
      <g transform="translate(135.582386 322.182437) scale(0.1 -0.1)">
       <defs>
        <path id="DejaVuSans-35" d="M 691 4666 
L 3169 4666 
L 3169 4134 
L 1269 4134 
L 1269 2991 
Q 1406 3038 1543 3061 
Q 1681 3084 1819 3084 
Q 2600 3084 3056 2656 
Q 3513 2228 3513 1497 
Q 3513 744 3044 326 
Q 2575 -91 1722 -91 
Q 1428 -91 1123 -41 
Q 819 9 494 109 
L 494 744 
Q 775 591 1075 516 
Q 1375 441 1709 441 
Q 2250 441 2565 725 
Q 2881 1009 2881 1497 
Q 2881 1984 2565 2268 
Q 2250 2553 1709 2553 
Q 1456 2553 1204 2497 
Q 953 2441 691 2322 
L 691 4666 
z
" transform="scale(0.015625)"/>
       </defs>
       <use xlink:href="#DejaVuSans-35"/>
      </g>
     </g>
    </g>
    <g id="xtick_3">
     <g id="line2d_3">
      <g>
       <use xlink:href="#m64fc7024d6" x="203.694545" y="307.584" style="stroke: #000000; stroke-width: 0.8"/>
      </g>
     </g>
     <g id="text_3">
      <!-- 10 -->
      <g transform="translate(197.332045 322.182437) scale(0.1 -0.1)">
       <defs>
        <path id="DejaVuSans-31" d="M 794 531 
L 1825 531 
L 1825 4091 
L 703 3866 
L 703 4441 
L 1819 4666 
L 2450 4666 
L 2450 531 
L 3481 531 
L 3481 0 
L 794 0 
L 794 531 
z
" transform="scale(0.015625)"/>
       </defs>
       <use xlink:href="#DejaVuSans-31"/>
       <use xlink:href="#DejaVuSans-30" x="63.623047"/>
      </g>
     </g>
    </g>
    <g id="xtick_4">
     <g id="line2d_4">
      <g>
       <use xlink:href="#m64fc7024d6" x="268.625455" y="307.584" style="stroke: #000000; stroke-width: 0.8"/>
      </g>
     </g>
     <g id="text_4">
      <!-- 15 -->
      <g transform="translate(262.262955 322.182437) scale(0.1 -0.1)">
       <use xlink:href="#DejaVuSans-31"/>
       <use xlink:href="#DejaVuSans-35" x="63.623047"/>
      </g>
     </g>
    </g>
    <g id="xtick_5">
     <g id="line2d_5">
      <g>
       <use xlink:href="#m64fc7024d6" x="333.556364" y="307.584" style="stroke: #000000; stroke-width: 0.8"/>
      </g>
     </g>
     <g id="text_5">
      <!-- 20 -->
      <g transform="translate(327.193864 322.182437) scale(0.1 -0.1)">
       <defs>
        <path id="DejaVuSans-32" d="M 1228 531 
L 3431 531 
L 3431 0 
L 469 0 
L 469 531 
Q 828 903 1448 1529 
Q 2069 2156 2228 2338 
Q 2531 2678 2651 2914 
Q 2772 3150 2772 3378 
Q 2772 3750 2511 3984 
Q 2250 4219 1831 4219 
Q 1534 4219 1204 4116 
Q 875 4013 500 3803 
L 500 4441 
Q 881 4594 1212 4672 
Q 1544 4750 1819 4750 
Q 2544 4750 2975 4387 
Q 3406 4025 3406 3419 
Q 3406 3131 3298 2873 
Q 3191 2616 2906 2266 
Q 2828 2175 2409 1742 
Q 1991 1309 1228 531 
z
" transform="scale(0.015625)"/>
       </defs>
       <use xlink:href="#DejaVuSans-32"/>
       <use xlink:href="#DejaVuSans-30" x="63.623047"/>
      </g>
     </g>
    </g>
    <g id="xtick_6">
     <g id="line2d_6">
      <g>
       <use xlink:href="#m64fc7024d6" x="398.487273" y="307.584" style="stroke: #000000; stroke-width: 0.8"/>
      </g>
     </g>
     <g id="text_6">
      <!-- 25 -->
      <g transform="translate(392.124773 322.182437) scale(0.1 -0.1)">
       <use xlink:href="#DejaVuSans-32"/>
       <use xlink:href="#DejaVuSans-35" x="63.623047"/>
      </g>
     </g>
    </g>
   </g>
   <g id="matplotlib.axis_2">
    <g id="ytick_1">
     <g id="line2d_7">
      <defs>
       <path id="mab2bf00cec" d="M 0 0 
L -3.5 0 
" style="stroke: #000000; stroke-width: 0.8"/>
      </defs>
      <g>
       <use xlink:href="#mab2bf00cec" x="57.6" y="294.258463" style="stroke: #000000; stroke-width: 0.8"/>
      </g>
     </g>
     <g id="text_7">
      <!-- 0 -->
      <g transform="translate(44.2375 298.057682) scale(0.1 -0.1)">
       <use xlink:href="#DejaVuSans-30"/>
      </g>
     </g>
    </g>
    <g id="ytick_2">
     <g id="line2d_8">
      <g>
       <use xlink:href="#mab2bf00cec" x="57.6" y="262.679125" style="stroke: #000000; stroke-width: 0.8"/>
      </g>
     </g>
     <g id="text_8">
      <!-- 10 -->
      <g transform="translate(37.875 266.478344) scale(0.1 -0.1)">
       <use xlink:href="#DejaVuSans-31"/>
       <use xlink:href="#DejaVuSans-30" x="63.623047"/>
      </g>
     </g>
    </g>
    <g id="ytick_3">
     <g id="line2d_9">
      <g>
       <use xlink:href="#mab2bf00cec" x="57.6" y="231.099787" style="stroke: #000000; stroke-width: 0.8"/>
      </g>
     </g>
     <g id="text_9">
      <!-- 20 -->
      <g transform="translate(37.875 234.899005) scale(0.1 -0.1)">
       <use xlink:href="#DejaVuSans-32"/>
       <use xlink:href="#DejaVuSans-30" x="63.623047"/>
      </g>
     </g>
    </g>
    <g id="ytick_4">
     <g id="line2d_10">
      <g>
       <use xlink:href="#mab2bf00cec" x="57.6" y="199.520448" style="stroke: #000000; stroke-width: 0.8"/>
      </g>
     </g>
     <g id="text_10">
      <!-- 30 -->
      <g transform="translate(37.875 203.319667) scale(0.1 -0.1)">
       <defs>
        <path id="DejaVuSans-33" d="M 2597 2516 
Q 3050 2419 3304 2112 
Q 3559 1806 3559 1356 
Q 3559 666 3084 287 
Q 2609 -91 1734 -91 
Q 1441 -91 1130 -33 
Q 819 25 488 141 
L 488 750 
Q 750 597 1062 519 
Q 1375 441 1716 441 
Q 2309 441 2620 675 
Q 2931 909 2931 1356 
Q 2931 1769 2642 2001 
Q 2353 2234 1838 2234 
L 1294 2234 
L 1294 2753 
L 1863 2753 
Q 2328 2753 2575 2939 
Q 2822 3125 2822 3475 
Q 2822 3834 2567 4026 
Q 2313 4219 1838 4219 
Q 1578 4219 1281 4162 
Q 984 4106 628 3988 
L 628 4550 
Q 988 4650 1302 4700 
Q 1616 4750 1894 4750 
Q 2613 4750 3031 4423 
Q 3450 4097 3450 3541 
Q 3450 3153 3228 2886 
Q 3006 2619 2597 2516 
z
" transform="scale(0.015625)"/>
       </defs>
       <use xlink:href="#DejaVuSans-33"/>
       <use xlink:href="#DejaVuSans-30" x="63.623047"/>
      </g>
     </g>
    </g>
    <g id="ytick_5">
     <g id="line2d_11">
      <g>
       <use xlink:href="#mab2bf00cec" x="57.6" y="167.94111" style="stroke: #000000; stroke-width: 0.8"/>
      </g>
     </g>
     <g id="text_11">
      <!-- 40 -->
      <g transform="translate(37.875 171.740329) scale(0.1 -0.1)">
       <defs>
        <path id="DejaVuSans-34" d="M 2419 4116 
L 825 1625 
L 2419 1625 
L 2419 4116 
z
M 2253 4666 
L 3047 4666 
L 3047 1625 
L 3713 1625 
L 3713 1100 
L 3047 1100 
L 3047 0 
L 2419 0 
L 2419 1100 
L 313 1100 
L 313 1709 
L 2253 4666 
z
" transform="scale(0.015625)"/>
       </defs>
       <use xlink:href="#DejaVuSans-34"/>
       <use xlink:href="#DejaVuSans-30" x="63.623047"/>
      </g>
     </g>
    </g>
    <g id="ytick_6">
     <g id="line2d_12">
      <g>
       <use xlink:href="#mab2bf00cec" x="57.6" y="136.361772" style="stroke: #000000; stroke-width: 0.8"/>
      </g>
     </g>
     <g id="text_12">
      <!-- 50 -->
      <g transform="translate(37.875 140.160991) scale(0.1 -0.1)">
       <use xlink:href="#DejaVuSans-35"/>
       <use xlink:href="#DejaVuSans-30" x="63.623047"/>
      </g>
     </g>
    </g>
    <g id="ytick_7">
     <g id="line2d_13">
      <g>
       <use xlink:href="#mab2bf00cec" x="57.6" y="104.782434" style="stroke: #000000; stroke-width: 0.8"/>
      </g>
     </g>
     <g id="text_13">
      <!-- 60 -->
      <g transform="translate(37.875 108.581652) scale(0.1 -0.1)">
       <defs>
        <path id="DejaVuSans-36" d="M 2113 2584 
Q 1688 2584 1439 2293 
Q 1191 2003 1191 1497 
Q 1191 994 1439 701 
Q 1688 409 2113 409 
Q 2538 409 2786 701 
Q 3034 994 3034 1497 
Q 3034 2003 2786 2293 
Q 2538 2584 2113 2584 
z
M 3366 4563 
L 3366 3988 
Q 3128 4100 2886 4159 
Q 2644 4219 2406 4219 
Q 1781 4219 1451 3797 
Q 1122 3375 1075 2522 
Q 1259 2794 1537 2939 
Q 1816 3084 2150 3084 
Q 2853 3084 3261 2657 
Q 3669 2231 3669 1497 
Q 3669 778 3244 343 
Q 2819 -91 2113 -91 
Q 1303 -91 875 529 
Q 447 1150 447 2328 
Q 447 3434 972 4092 
Q 1497 4750 2381 4750 
Q 2619 4750 2861 4703 
Q 3103 4656 3366 4563 
z
" transform="scale(0.015625)"/>
       </defs>
       <use xlink:href="#DejaVuSans-36"/>
       <use xlink:href="#DejaVuSans-30" x="63.623047"/>
      </g>
     </g>
    </g>
    <g id="ytick_8">
     <g id="line2d_14">
      <g>
       <use xlink:href="#mab2bf00cec" x="57.6" y="73.203095" style="stroke: #000000; stroke-width: 0.8"/>
      </g>
     </g>
     <g id="text_14">
      <!-- 70 -->
      <g transform="translate(37.875 77.002314) scale(0.1 -0.1)">
       <defs>
        <path id="DejaVuSans-37" d="M 525 4666 
L 3525 4666 
L 3525 4397 
L 1831 0 
L 1172 0 
L 2766 4134 
L 525 4134 
L 525 4666 
z
" transform="scale(0.015625)"/>
       </defs>
       <use xlink:href="#DejaVuSans-37"/>
       <use xlink:href="#DejaVuSans-30" x="63.623047"/>
      </g>
     </g>
    </g>
    <g id="ytick_9">
     <g id="line2d_15">
      <g>
       <use xlink:href="#mab2bf00cec" x="57.6" y="41.623757" style="stroke: #000000; stroke-width: 0.8"/>
      </g>
     </g>
     <g id="text_15">
      <!-- 80 -->
      <g transform="translate(37.875 45.422976) scale(0.1 -0.1)">
       <defs>
        <path id="DejaVuSans-38" d="M 2034 2216 
Q 1584 2216 1326 1975 
Q 1069 1734 1069 1313 
Q 1069 891 1326 650 
Q 1584 409 2034 409 
Q 2484 409 2743 651 
Q 3003 894 3003 1313 
Q 3003 1734 2745 1975 
Q 2488 2216 2034 2216 
z
M 1403 2484 
Q 997 2584 770 2862 
Q 544 3141 544 3541 
Q 544 4100 942 4425 
Q 1341 4750 2034 4750 
Q 2731 4750 3128 4425 
Q 3525 4100 3525 3541 
Q 3525 3141 3298 2862 
Q 3072 2584 2669 2484 
Q 3125 2378 3379 2068 
Q 3634 1759 3634 1313 
Q 3634 634 3220 271 
Q 2806 -91 2034 -91 
Q 1263 -91 848 271 
Q 434 634 434 1313 
Q 434 1759 690 2068 
Q 947 2378 1403 2484 
z
M 1172 3481 
Q 1172 3119 1398 2916 
Q 1625 2713 2034 2713 
Q 2441 2713 2670 2916 
Q 2900 3119 2900 3481 
Q 2900 3844 2670 4047 
Q 2441 4250 2034 4250 
Q 1625 4250 1398 4047 
Q 1172 3844 1172 3481 
z
" transform="scale(0.015625)"/>
       </defs>
       <use xlink:href="#DejaVuSans-38"/>
       <use xlink:href="#DejaVuSans-30" x="63.623047"/>
      </g>
     </g>
    </g>
   </g>
   <g id="line2d_16">
    <path d="M 73.832727 289.185242 
L 74.482686 272.453613 
L 74.807666 280.50212 
L 75.132645 283.158901 
L 75.782604 277.618583 
L 76.107584 273.371705 
L 76.432563 275.742164 
L 76.757543 279.110332 
L 77.082523 288.495667 
L 77.407502 279.228345 
L 77.732482 286.453327 
L 78.057461 284.866239 
L 78.382441 278.520126 
L 78.70742 291.721472 
L 79.0324 288.891943 
L 79.357379 287.270962 
L 80.007338 277.225267 
L 80.332318 281.391561 
L 80.657297 282.255196 
L 80.982277 265.973596 
L 81.307256 277.884642 
L 81.632236 278.067451 
L 81.957215 281.45994 
L 82.282195 268.938983 
L 82.607174 277.813715 
L 82.932154 270.078654 
L 83.257133 275.091066 
L 83.582113 276.776944 
L 83.907093 264.414324 
L 84.232072 271.300585 
L 84.557052 274.869632 
L 84.882031 270.552178 
L 85.207011 286.15575 
L 85.53199 266.943645 
L 85.85697 273.812054 
L 86.181949 272.536399 
L 86.506929 275.049247 
L 86.831908 270.634599 
L 87.156888 276.265665 
L 87.481867 274.207091 
L 87.806847 278.505476 
L 88.131826 278.601878 
L 88.456806 273.066753 
L 88.781785 275.848073 
L 89.106765 265.868094 
L 89.431744 275.347741 
L 89.756724 268.920712 
L 90.081704 272.655686 
L 90.406683 267.89951 
L 90.731663 255.28318 
L 91.056642 275.604809 
L 91.381622 262.092321 
L 91.706601 269.650088 
L 92.031581 272.151548 
L 92.68154 267.645053 
L 93.331499 258.83776 
L 93.656478 274.769417 
L 93.981458 267.768802 
L 94.306437 268.683444 
L 94.631417 279.428493 
L 94.956396 262.638088 
L 95.281376 261.845365 
L 95.931335 267.499493 
L 96.256314 261.438653 
L 96.581294 265.001771 
L 96.906274 274.038506 
L 97.231253 264.936992 
L 97.881212 277.725159 
L 98.206192 267.089211 
L 98.531171 261.335394 
L 98.856151 262.481682 
L 99.18113 261.882197 
L 99.50611 262.013417 
L 99.831089 265.517443 
L 100.156069 261.189883 
L 100.481048 261.622414 
L 100.806028 266.899747 
L 101.131007 274.111187 
L 101.455987 273.707924 
L 101.780966 256.64635 
L 102.105946 265.131508 
L 102.430925 251.062371 
L 102.755905 261.831018 
L 103.080885 250.976159 
L 103.405864 271.4613 
L 103.730844 265.500326 
L 104.055823 265.99061 
L 104.380803 272.98973 
L 104.705782 252.379408 
L 105.030762 256.264703 
L 105.355741 257.465011 
L 105.680721 256.285893 
L 106.0057 271.827493 
L 106.33068 257.753752 
L 106.655659 262.581102 
L 107.305618 247.03395 
L 107.630598 254.002433 
L 107.955577 248.832546 
L 108.280557 263.694543 
L 108.605536 253.755365 
L 108.930516 256.61093 
L 109.255495 262.17683 
L 109.580475 251.497743 
L 109.905455 263.063715 
L 110.230434 261.166129 
L 110.555414 260.606403 
L 110.880393 247.971228 
L 111.205373 265.869341 
L 111.855332 247.124994 
L 112.180311 245.237431 
L 112.505291 253.485223 
L 112.83027 272.272086 
L 113.15525 245.365546 
L 113.480229 261.556159 
L 113.805209 245.53357 
L 114.130188 260.566502 
L 114.455168 261.822677 
L 114.780147 252.156478 
L 115.105127 248.004254 
L 115.430106 256.798229 
L 115.755086 255.824448 
L 116.080066 246.354203 
L 116.405045 259.569606 
L 116.730025 257.303216 
L 117.055004 250.753279 
L 117.379984 255.323191 
L 117.704963 250.646233 
L 118.029943 253.636235 
L 118.354922 249.775166 
L 118.679902 256.558147 
L 119.004881 253.115528 
L 119.329861 251.918909 
L 119.65484 249.797442 
L 119.97982 259.407467 
L 120.304799 256.20609 
L 120.629779 255.328448 
L 120.954758 255.98002 
L 121.279738 248.740711 
L 121.604717 248.230358 
L 121.929697 248.83688 
L 122.254676 243.567433 
L 122.579656 242.803919 
L 122.904636 252.591736 
L 123.229615 252.427856 
L 123.554595 247.319627 
L 123.879574 248.928956 
L 124.204554 252.530424 
L 124.529533 254.479329 
L 124.854513 261.127761 
L 125.179492 252.412105 
L 125.504472 251.272478 
L 125.829451 242.700324 
L 126.154431 253.433816 
L 126.47941 234.261875 
L 126.80439 267.112995 
L 127.454349 246.312189 
L 127.779328 255.66969 
L 128.429287 247.551317 
L 128.754267 245.34775 
L 129.079247 248.476167 
L 129.404226 248.734507 
L 129.729206 245.584027 
L 130.054185 252.642671 
L 130.379165 239.95644 
L 130.704144 235.596737 
L 131.029124 237.271632 
L 131.354103 247.441514 
L 131.679083 235.924765 
L 132.004062 248.150835 
L 132.329042 248.872795 
L 132.654021 257.212446 
L 132.979001 246.37426 
L 133.30398 243.193924 
L 133.62896 236.813291 
L 133.953939 235.331792 
L 134.278919 245.321494 
L 134.603898 244.12164 
L 134.928878 244.261945 
L 135.253857 240.460457 
L 135.578837 243.82208 
L 135.903817 248.952793 
L 136.228796 235.65454 
L 136.553776 249.672551 
L 136.878755 230.100193 
L 137.203735 247.086 
L 137.528714 247.867612 
L 138.178673 228.701089 
L 138.503653 250.207731 
L 138.828632 245.242873 
L 139.153612 237.644353 
L 139.478591 244.003694 
L 139.803571 240.920741 
L 140.12855 232.800451 
L 140.45353 239.190958 
L 140.778509 230.804734 
L 141.103489 233.489553 
L 141.428468 235.074456 
L 141.753448 237.763607 
L 142.078428 247.885751 
L 142.728387 230.546544 
L 143.053366 243.727726 
L 143.378346 237.309586 
L 143.703325 235.140502 
L 144.028305 237.332784 
L 144.678264 234.288597 
L 145.003243 227.350455 
L 145.328223 233.96478 
L 145.653202 230.237763 
L 146.303161 217.645391 
L 146.95312 237.213364 
L 147.603079 227.340929 
L 147.928059 230.27555 
L 148.253038 222.437098 
L 148.578018 226.934202 
L 148.902998 227.589915 
L 149.227977 227.616726 
L 149.552957 219.22643 
L 149.877936 234.785592 
L 150.202916 230.679346 
L 150.527895 219.529155 
L 150.852875 219.158115 
L 151.502834 231.151512 
L 151.827813 225.333093 
L 152.152793 215.483011 
L 152.477772 230.678427 
L 152.802752 221.007416 
L 153.127731 226.651943 
L 153.452711 226.592569 
L 153.77769 222.782674 
L 154.10267 229.710768 
L 154.427649 230.908462 
L 154.752629 223.916012 
L 155.077609 221.573452 
L 155.402588 226.240522 
L 155.727568 233.492212 
L 156.052547 224.612444 
L 156.377527 224.643756 
L 156.702506 225.604849 
L 157.027486 233.120786 
L 157.352465 225.166704 
L 157.677445 225.492202 
L 158.002424 229.495735 
L 158.327404 221.681397 
L 158.652383 228.35846 
L 158.977363 212.838574 
L 159.302342 218.639252 
L 159.627322 216.012095 
L 159.952301 219.395966 
L 160.277281 216.786337 
L 160.60226 211.047561 
L 160.92724 213.67893 
L 161.252219 227.978497 
L 161.902179 215.808585 
L 162.227158 218.753477 
L 162.552138 226.284682 
L 162.877117 212.414384 
L 163.202097 217.454045 
L 163.527076 227.084595 
L 163.852056 206.281064 
L 164.177035 220.432396 
L 164.502015 220.156942 
L 164.826994 219.484563 
L 165.151974 228.883212 
L 165.476953 212.411997 
L 166.126912 230.441472 
L 166.451892 216.818677 
L 166.776871 220.329719 
L 167.42683 223.414921 
L 167.75181 217.314078 
L 168.07679 221.341988 
L 168.401769 219.040387 
L 169.051728 208.988379 
L 169.376708 224.000265 
L 169.701687 220.992398 
L 170.026667 213.602591 
L 170.351646 220.484213 
L 170.676626 214.664965 
L 171.001605 220.096965 
L 171.326585 220.757324 
L 171.651564 214.85341 
L 171.976544 214.416691 
L 172.301523 218.070323 
L 172.951482 204.863122 
L 173.276462 220.625322 
L 173.601441 217.507581 
L 173.926421 225.116885 
L 174.57638 210.009099 
L 174.90136 218.38061 
L 175.226339 208.454923 
L 175.551319 211.628551 
L 175.876298 217.19438 
L 176.201278 215.997775 
L 176.526257 229.566788 
L 176.851237 210.657693 
L 177.176216 217.617594 
L 177.501196 214.967697 
L 177.826175 200.534301 
L 178.151155 199.145042 
L 178.801114 213.39978 
L 179.451073 202.105779 
L 179.776052 208.401817 
L 180.101032 206.474784 
L 180.426011 206.512787 
L 180.750991 203.619265 
L 181.075971 207.86815 
L 181.40095 205.759863 
L 181.72593 217.482938 
L 182.050909 207.336556 
L 182.375889 210.582405 
L 182.700868 217.699757 
L 183.675807 201.398894 
L 184.000786 208.190402 
L 184.325766 209.158392 
L 184.650745 204.050167 
L 184.975725 210.974211 
L 185.625684 199.544595 
L 185.950663 209.459804 
L 186.275643 212.31274 
L 186.600622 200.473979 
L 186.925602 198.602655 
L 187.250581 205.588628 
L 187.575561 207.420541 
L 187.900541 201.938648 
L 188.22552 209.931106 
L 188.5505 206.274934 
L 188.875479 205.581229 
L 189.200459 193.592249 
L 189.525438 212.00586 
L 190.175397 198.926206 
L 190.500377 206.789883 
L 190.825356 209.667011 
L 191.150336 205.109963 
L 191.475315 208.15889 
L 192.125274 198.48976 
L 192.450254 203.588093 
L 192.775233 199.550705 
L 193.100213 202.416416 
L 193.425192 188.786033 
L 193.750172 205.280982 
L 194.075152 196.528684 
L 194.400131 199.84828 
L 194.725111 198.685385 
L 195.05009 192.335338 
L 195.37507 202.114375 
L 195.700049 194.739218 
L 196.350008 207.057942 
L 196.674988 196.190392 
L 196.999967 205.362916 
L 197.324947 208.392056 
L 197.974906 189.334119 
L 198.299885 193.859452 
L 198.624865 192.147477 
L 198.949844 189.055253 
L 199.274824 191.27058 
L 199.599803 187.589134 
L 199.924783 197.513786 
L 200.249762 186.428072 
L 200.574742 200.214441 
L 200.899722 200.951669 
L 201.224701 191.298772 
L 201.549681 192.98517 
L 201.87466 192.750393 
L 202.19964 196.445856 
L 202.524619 193.637934 
L 202.849599 194.896597 
L 203.174578 182.315269 
L 203.499558 194.280015 
L 203.824537 185.714904 
L 204.149517 183.99603 
L 204.474496 184.047626 
L 204.799476 190.820872 
L 205.124455 193.171741 
L 205.449435 187.668906 
L 205.774414 185.690693 
L 206.749353 208.136007 
L 207.074333 193.693544 
L 207.399312 191.697454 
L 207.724292 196.38933 
L 208.049271 188.525585 
L 208.374251 188.383769 
L 209.02421 197.764708 
L 209.349189 195.946767 
L 209.674169 198.703305 
L 209.999148 178.746156 
L 210.324128 183.051863 
L 210.649107 185.792206 
L 210.974087 190.925819 
L 211.299066 194.222247 
L 211.624046 191.039013 
L 211.949025 192.747507 
L 212.274005 180.081418 
L 212.598984 189.476818 
L 212.923964 193.20383 
L 213.248943 191.627559 
L 213.573923 201.111727 
L 213.898903 187.568689 
L 214.223882 185.660832 
L 214.548862 187.288341 
L 214.873841 192.286611 
L 215.198821 184.882724 
L 215.84878 192.317552 
L 216.173759 187.741494 
L 216.498739 196.08871 
L 216.823718 183.462475 
L 217.148698 179.113972 
L 217.473677 186.778234 
L 217.798657 183.591886 
L 218.123636 189.116841 
L 218.448616 179.229427 
L 218.773595 173.642403 
L 219.423554 187.195625 
L 219.748534 177.742625 
L 220.073514 185.197328 
L 220.398493 176.972788 
L 220.723473 190.419809 
L 221.048452 178.838962 
L 221.373432 187.300803 
L 221.698411 175.790524 
L 222.023391 175.388785 
L 222.34837 177.774583 
L 222.67335 183.174376 
L 222.998329 181.814618 
L 223.323309 171.210225 
L 223.648288 167.761377 
L 223.973268 179.494461 
L 224.298247 166.589021 
L 224.623227 188.036977 
L 224.948206 197.219947 
L 225.273186 183.9942 
L 225.598165 190.239033 
L 225.923145 186.059809 
L 226.248124 166.732597 
L 226.898084 185.447608 
L 227.223063 178.764171 
L 227.548043 180.066737 
L 227.873022 175.310905 
L 228.198002 181.9416 
L 228.522981 175.36431 
L 228.847961 181.357169 
L 229.17294 168.619786 
L 229.49792 171.220764 
L 229.822899 178.724052 
L 230.147879 179.382126 
L 230.472858 187.098367 
L 230.797838 172.268632 
L 231.122817 166.25583 
L 231.447797 180.326777 
L 231.772776 162.608642 
L 232.097756 166.575152 
L 232.422735 172.528894 
L 232.747715 171.273242 
L 233.072695 178.979603 
L 233.397674 181.636076 
L 233.722654 173.915513 
L 234.047633 180.668442 
L 234.372613 170.954464 
L 234.697592 174.376006 
L 235.022572 175.154449 
L 235.347551 176.966496 
L 235.672531 172.850128 
L 235.99751 160.373471 
L 236.32249 159.248032 
L 236.647469 161.108582 
L 236.972449 171.891553 
L 237.297428 167.677044 
L 237.622408 174.138891 
L 237.947387 150.167587 
L 238.272367 173.670506 
L 238.597346 172.800214 
L 238.922326 174.634825 
L 239.247305 171.503781 
L 239.572285 176.727499 
L 239.897265 178.735461 
L 240.222244 172.512421 
L 240.547224 160.750331 
L 240.872203 166.290798 
L 241.197183 153.939598 
L 241.522162 166.734456 
L 241.847142 161.299499 
L 242.172121 165.427883 
L 242.497101 162.375421 
L 242.82208 165.942187 
L 243.14706 167.90657 
L 244.121998 159.598452 
L 244.446978 169.41201 
L 244.771957 162.24495 
L 245.096937 168.470754 
L 245.421916 165.196168 
L 245.746896 159.083398 
L 246.071876 175.45251 
L 246.396855 161.153704 
L 246.721835 167.947778 
L 247.046814 166.183715 
L 247.371794 159.595691 
L 247.696773 159.670333 
L 248.021753 163.787875 
L 248.346732 160.844936 
L 248.671712 166.737681 
L 248.996691 169.138449 
L 249.321671 159.568456 
L 249.64665 166.165951 
L 249.97163 152.138554 
L 250.621589 170.278112 
L 250.946568 163.658599 
L 251.271548 177.358442 
L 251.596527 154.665475 
L 251.921507 159.949114 
L 252.246486 152.963319 
L 252.571466 162.860699 
L 252.896446 166.977695 
L 253.221425 158.56702 
L 253.546405 160.192958 
L 253.871384 166.967036 
L 254.196364 163.676469 
L 254.521343 172.415816 
L 254.846323 161.015865 
L 255.171302 163.381724 
L 255.496282 144.956074 
L 255.821261 162.10859 
L 256.146241 149.759558 
L 256.47122 148.165481 
L 256.7962 166.01754 
L 257.121179 163.092256 
L 257.446159 155.376431 
L 257.771138 173.325316 
L 258.096118 163.467968 
L 258.421097 169.646616 
L 258.746077 151.46825 
L 259.071057 165.011975 
L 259.721016 158.543623 
L 260.045995 168.041976 
L 260.370975 161.640628 
L 261.020934 158.527199 
L 261.345913 148.600605 
L 261.670893 160.534492 
L 261.995872 154.24837 
L 262.320852 158.919149 
L 262.645831 147.20638 
L 262.970811 148.958707 
L 263.29579 155.04637 
L 263.62077 146.85672 
L 263.945749 156.438783 
L 264.270729 148.334478 
L 264.595708 155.501299 
L 264.920688 149.950116 
L 265.245667 153.330646 
L 265.570647 145.883689 
L 265.895627 156.047675 
L 266.220606 147.945427 
L 266.545586 136.540116 
L 266.870565 163.787348 
L 267.195545 152.943951 
L 267.520524 150.464355 
L 267.845504 153.432774 
L 268.170483 145.380561 
L 268.495463 143.118794 
L 268.820442 153.337985 
L 269.145422 145.408703 
L 269.470401 142.663633 
L 269.795381 151.54301 
L 270.12036 143.290369 
L 270.44534 154.940937 
L 270.770319 145.448254 
L 271.095299 147.331633 
L 271.420278 142.360735 
L 271.745258 161.05727 
L 272.070238 147.721278 
L 272.720197 143.112029 
L 273.045176 142.597111 
L 273.370156 150.742033 
L 273.695135 155.819664 
L 274.020115 146.585605 
L 274.345094 141.95384 
L 274.670074 150.486994 
L 274.995053 148.173717 
L 275.320033 139.233759 
L 275.645012 144.203728 
L 275.969992 154.608114 
L 276.294971 145.02003 
L 276.619951 151.149914 
L 276.94493 143.046794 
L 277.26991 151.105568 
L 277.594889 135.556942 
L 277.919869 148.025639 
L 278.244848 137.233698 
L 278.569828 135.7932 
L 279.219787 148.688039 
L 279.544767 133.555815 
L 279.869746 139.702539 
L 280.194726 132.483465 
L 280.519705 143.100058 
L 280.844685 149.043345 
L 281.169664 146.864681 
L 281.494644 141.332687 
L 281.819623 141.376424 
L 282.144603 151.187497 
L 282.469582 154.282249 
L 282.794562 135.779532 
L 283.444521 144.96877 
L 283.7695 133.311218 
L 284.09448 142.124309 
L 284.419459 133.617573 
L 284.744439 140.471017 
L 285.394398 132.150093 
L 285.719378 136.807031 
L 286.044357 137.398437 
L 286.369337 128.502411 
L 287.019296 136.909103 
L 287.344275 140.813437 
L 287.669255 141.178845 
L 287.994234 131.574984 
L 288.319214 146.131291 
L 288.644193 138.837202 
L 288.969173 154.449832 
L 289.294152 127.100779 
L 289.619132 133.542135 
L 289.944111 133.055455 
L 290.269091 143.238365 
L 290.59407 128.937919 
L 291.244029 138.999992 
L 291.569009 148.982214 
L 291.893989 131.565573 
L 292.218968 128.102527 
L 292.543948 133.233749 
L 292.868927 131.907875 
L 293.193907 138.555963 
L 293.518886 128.928916 
L 293.843866 132.91111 
L 294.168845 133.958653 
L 294.493825 129.600193 
L 294.818804 141.727709 
L 295.143784 127.010936 
L 295.468763 125.814017 
L 295.793743 139.037161 
L 296.118722 136.271323 
L 296.443702 136.957948 
L 296.768681 136.282609 
L 297.093661 137.119354 
L 297.41864 127.488714 
L 297.74362 126.545186 
L 298.0686 124.484252 
L 298.393579 131.067145 
L 298.718559 124.288791 
L 299.368518 141.152889 
L 299.693497 126.008413 
L 300.018477 128.792826 
L 300.343456 121.824333 
L 300.668436 125.36977 
L 301.318395 118.527731 
L 301.643374 136.976617 
L 301.968354 133.601314 
L 302.293333 119.494203 
L 302.618313 119.841441 
L 302.943292 121.785825 
L 303.268272 130.447502 
L 303.593251 126.002713 
L 303.918231 125.87683 
L 304.24321 129.270964 
L 304.56819 119.848139 
L 304.89317 118.213813 
L 305.218149 127.876837 
L 305.543129 127.843622 
L 305.868108 119.344056 
L 306.518067 125.64994 
L 306.843047 125.332363 
L 307.168026 130.780133 
L 307.817985 111.779687 
L 308.142965 120.034821 
L 308.467944 120.180792 
L 308.792924 119.231558 
L 309.117903 128.146467 
L 309.442883 116.879766 
L 309.767862 125.956802 
L 310.092842 124.167833 
L 310.417821 133.209005 
L 310.742801 122.709671 
L 311.067781 120.897927 
L 311.39276 127.876353 
L 311.71774 111.225143 
L 312.042719 124.416057 
L 312.367699 120.129473 
L 312.692678 105.090955 
L 313.017658 123.183572 
L 313.342637 109.333179 
L 313.667617 123.811029 
L 313.992596 116.907205 
L 314.317576 118.172777 
L 314.642555 115.87114 
L 314.967535 127.023512 
L 315.292514 113.210618 
L 315.617494 124.84534 
L 315.942473 119.085041 
L 316.267453 108.561745 
L 316.592432 115.501942 
L 316.917412 116.432636 
L 317.242391 119.155058 
L 317.567371 110.422595 
L 317.892351 110.415439 
L 318.21733 122.911172 
L 318.54231 116.693538 
L 318.867289 113.564297 
L 319.192269 123.676254 
L 319.517248 94.520086 
L 319.842228 115.596418 
L 320.167207 109.930809 
L 320.492187 117.081681 
L 320.817166 119.435481 
L 321.467125 109.64889 
L 321.792105 113.998926 
L 322.117084 115.477665 
L 322.442064 120.846826 
L 322.767043 116.442471 
L 323.092023 109.89553 
L 323.417002 112.327211 
L 323.741982 110.035996 
L 324.066962 112.258263 
L 324.391941 117.920883 
L 324.716921 102.285865 
L 325.0419 115.514169 
L 325.36688 111.409639 
L 325.691859 105.250237 
L 326.016839 102.982583 
L 326.341818 103.351819 
L 326.666798 111.146959 
L 326.991777 112.580351 
L 327.316757 113.13042 
L 327.641736 123.582887 
L 327.966716 104.51118 
L 328.291695 104.170062 
L 328.616675 107.513596 
L 328.941654 101.157998 
L 329.266634 114.432941 
L 329.591613 108.431176 
L 329.916593 100.161262 
L 330.241572 115.598318 
L 330.566552 107.780552 
L 330.891532 95.515492 
L 331.216511 93.104651 
L 331.86647 106.882992 
L 332.19145 101.345825 
L 332.516429 110.658382 
L 332.841409 104.276689 
L 333.166388 104.13858 
L 333.491368 110.923497 
L 333.816347 107.099818 
L 334.141327 107.520289 
L 334.466306 108.176582 
L 334.791286 103.26245 
L 335.116265 108.635424 
L 335.441245 106.588877 
L 335.766224 90.286821 
L 336.091204 106.525873 
L 336.416183 105.437364 
L 336.741163 109.161999 
L 337.066143 109.885647 
L 337.391122 100.518378 
L 337.716102 111.13537 
L 338.041081 105.677026 
L 338.366061 103.247156 
L 338.69104 93.108764 
L 339.340999 122.348067 
L 339.665979 102.837692 
L 339.990958 102.156027 
L 340.315938 102.817704 
L 340.640917 113.936109 
L 340.965897 96.90429 
L 341.290876 106.531367 
L 341.615856 105.687082 
L 341.940835 93.969031 
L 342.265815 89.82702 
L 342.590794 107.947393 
L 342.915774 93.506879 
L 343.240753 105.298367 
L 343.565733 96.050859 
L 343.890713 101.279618 
L 344.215692 99.680995 
L 344.540672 107.226864 
L 344.865651 90.440219 
L 345.190631 105.285481 
L 345.51561 102.919131 
L 345.84059 91.316169 
L 346.165569 113.620996 
L 346.490549 90.892907 
L 346.815528 92.187566 
L 347.140508 89.153037 
L 347.465487 96.793598 
L 347.790467 88.638263 
L 348.115446 93.524176 
L 348.440426 107.262485 
L 348.765405 110.382989 
L 349.090385 93.3239 
L 349.415364 90.358429 
L 349.740344 93.675627 
L 350.065324 100.265328 
L 350.390303 87.748571 
L 350.715283 82.383602 
L 351.040262 92.406134 
L 351.365242 89.392413 
L 351.690221 92.360876 
L 352.015201 86.905402 
L 352.34018 90.51987 
L 352.66516 89.774557 
L 352.990139 94.753648 
L 353.315119 97.516692 
L 353.640098 89.242126 
L 354.290057 100.952688 
L 354.615037 88.513455 
L 354.940016 90.32965 
L 355.264996 94.141922 
L 355.589975 89.305741 
L 355.914955 91.830533 
L 356.239934 97.610915 
L 356.564914 96.610292 
L 356.889894 99.924677 
L 357.214873 85.476431 
L 357.539853 92.1985 
L 357.864832 87.552641 
L 358.189812 89.168343 
L 358.514791 91.513491 
L 358.839771 82.233603 
L 359.48973 87.807325 
L 359.814709 87.850412 
L 360.139689 82.153868 
L 360.464668 87.86339 
L 360.789648 89.043222 
L 361.114627 74.900692 
L 361.439607 76.113405 
L 361.764586 83.661371 
L 362.089566 76.960074 
L 362.414545 81.201139 
L 362.739525 97.020936 
L 363.064505 101.693431 
L 363.389484 91.348158 
L 364.039443 81.0912 
L 364.364423 66.646817 
L 364.689402 89.847834 
L 365.014382 83.858268 
L 365.339361 82.052523 
L 365.664341 80.909023 
L 365.98932 82.324413 
L 366.3143 72.091515 
L 366.639279 78.517914 
L 366.964259 78.155008 
L 367.289238 73.439187 
L 367.614218 80.522553 
L 367.939197 82.803554 
L 368.264177 86.867013 
L 368.589156 76.682533 
L 369.239115 81.586509 
L 369.564095 99.348182 
L 369.889075 81.372648 
L 370.214054 83.330358 
L 370.539034 73.297933 
L 370.864013 83.438198 
L 371.188993 87.004264 
L 371.513972 83.62227 
L 371.838952 85.160339 
L 372.163931 91.68861 
L 372.488911 90.608901 
L 372.81389 69.140504 
L 373.13887 78.624814 
L 373.463849 66.262677 
L 373.788829 67.225106 
L 374.113808 80.877825 
L 374.438788 82.363187 
L 374.763767 81.221601 
L 375.088747 67.974217 
L 375.413726 84.895107 
L 375.738706 74.876035 
L 376.063686 81.446365 
L 376.388665 74.041818 
L 376.713645 86.282152 
L 377.363604 70.578252 
L 377.688583 67.933086 
L 378.013563 77.439522 
L 378.338542 78.741636 
L 378.663522 72.562707 
L 378.988501 81.546958 
L 379.313481 69.757191 
L 379.63846 79.104892 
L 379.96344 68.365208 
L 380.288419 85.243907 
L 380.613399 68.551909 
L 380.938378 63.494553 
L 381.263358 82.572181 
L 381.588337 75.692066 
L 381.913317 75.43821 
L 382.238296 73.307854 
L 382.563276 73.986549 
L 382.888256 73.306993 
L 383.213235 81.653858 
L 383.538215 65.452594 
L 383.863194 61.912224 
L 384.188174 80.326595 
L 384.513153 58.599179 
L 384.838133 68.462671 
L 385.163112 74.861915 
L 385.488092 73.742538 
L 385.813071 70.743679 
L 386.138051 65.157511 
L 386.46303 67.134299 
L 386.78801 62.899591 
L 387.112989 75.927744 
L 387.437969 62.861118 
L 387.762948 63.460786 
L 388.412907 75.567934 
L 389.062867 63.323432 
L 389.387846 63.728909 
L 390.037805 70.52773 
L 390.362785 72.258551 
L 390.687764 65.634639 
L 391.012744 81.053375 
L 391.337723 61.370909 
L 391.662703 68.556664 
L 391.987682 55.904424 
L 392.637641 71.166465 
L 392.962621 60.272478 
L 393.2876 68.28446 
L 393.61258 63.840913 
L 393.937559 64.142055 
L 394.262539 61.293433 
L 394.912498 72.815858 
L 395.237477 77.763578 
L 395.562457 64.555187 
L 395.887437 71.545334 
L 396.212416 68.440991 
L 396.537396 53.568 
L 396.862375 75.850569 
L 397.187355 66.455344 
L 397.512334 62.08402 
L 397.837314 59.990405 
L 398.162293 60.978033 
L 398.487273 73.747872 
L 398.487273 73.747872 
" clip-path="url(#pa8715b688c)" style="fill: none; stroke: #008000; stroke-width: 0.5; stroke-linecap: square"/>
   </g>
   <g id="LineCollection_1">
    <path d="M 73.832727 295.488 
L 73.832727 282.882483 
" clip-path="url(#pa8715b688c)" style="fill: none; stroke: #ff0000"/>
    <path d="M 81.957215 287.762698 
L 81.957215 275.157181 
" clip-path="url(#pa8715b688c)" style="fill: none; stroke: #ff0000"/>
    <path d="M 90.081704 278.958445 
L 90.081704 266.352928 
" clip-path="url(#pa8715b688c)" style="fill: none; stroke: #ff0000"/>
    <path d="M 98.206192 273.39197 
L 98.206192 260.786453 
" clip-path="url(#pa8715b688c)" style="fill: none; stroke: #ff0000"/>
    <path d="M 106.33068 264.05651 
L 106.33068 251.450994 
" clip-path="url(#pa8715b688c)" style="fill: none; stroke: #ff0000"/>
    <path d="M 114.455168 268.125435 
L 114.455168 255.519918 
" clip-path="url(#pa8715b688c)" style="fill: none; stroke: #ff0000"/>
    <path d="M 122.579656 249.106677 
L 122.579656 236.50116 
" clip-path="url(#pa8715b688c)" style="fill: none; stroke: #ff0000"/>
    <path d="M 130.704144 241.899496 
L 130.704144 229.293979 
" clip-path="url(#pa8715b688c)" style="fill: none; stroke: #ff0000"/>
    <path d="M 138.828632 251.545632 
L 138.828632 238.940115 
" clip-path="url(#pa8715b688c)" style="fill: none; stroke: #ff0000"/>
    <path d="M 146.95312 243.516123 
L 146.95312 230.910606 
" clip-path="url(#pa8715b688c)" style="fill: none; stroke: #ff0000"/>
    <path d="M 155.077609 227.87621 
L 155.077609 215.270693 
" clip-path="url(#pa8715b688c)" style="fill: none; stroke: #ff0000"/>
    <path d="M 163.202097 223.756803 
L 163.202097 211.151287 
" clip-path="url(#pa8715b688c)" style="fill: none; stroke: #ff0000"/>
    <path d="M 171.326585 227.060083 
L 171.326585 214.454566 
" clip-path="url(#pa8715b688c)" style="fill: none; stroke: #ff0000"/>
    <path d="M 179.451073 208.408538 
L 179.451073 195.803021 
" clip-path="url(#pa8715b688c)" style="fill: none; stroke: #ff0000"/>
    <path d="M 187.575561 213.723299 
L 187.575561 201.117782 
" clip-path="url(#pa8715b688c)" style="fill: none; stroke: #ff0000"/>
    <path d="M 195.700049 201.041977 
L 195.700049 188.43646 
" clip-path="url(#pa8715b688c)" style="fill: none; stroke: #ff0000"/>
    <path d="M 203.824537 192.017663 
L 203.824537 179.412146 
" clip-path="url(#pa8715b688c)" style="fill: none; stroke: #ff0000"/>
    <path d="M 211.949025 199.050265 
L 211.949025 186.444748 
" clip-path="url(#pa8715b688c)" style="fill: none; stroke: #ff0000"/>
    <path d="M 220.073514 191.500086 
L 220.073514 178.894569 
" clip-path="url(#pa8715b688c)" style="fill: none; stroke: #ff0000"/>
    <path d="M 228.198002 188.244359 
L 228.198002 175.638842 
" clip-path="url(#pa8715b688c)" style="fill: none; stroke: #ff0000"/>
    <path d="M 236.32249 165.55079 
L 236.32249 152.945273 
" clip-path="url(#pa8715b688c)" style="fill: none; stroke: #ff0000"/>
    <path d="M 244.446978 175.714768 
L 244.446978 163.109252 
" clip-path="url(#pa8715b688c)" style="fill: none; stroke: #ff0000"/>
    <path d="M 252.571466 169.163458 
L 252.571466 156.557941 
" clip-path="url(#pa8715b688c)" style="fill: none; stroke: #ff0000"/>
    <path d="M 260.695954 166.152271 
L 260.695954 153.546754 
" clip-path="url(#pa8715b688c)" style="fill: none; stroke: #ff0000"/>
    <path d="M 268.820442 159.640743 
L 268.820442 147.035226 
" clip-path="url(#pa8715b688c)" style="fill: none; stroke: #ff0000"/>
    <path d="M 276.94493 149.349553 
L 276.94493 136.744036 
" clip-path="url(#pa8715b688c)" style="fill: none; stroke: #ff0000"/>
    <path d="M 285.069419 142.53963 
L 285.069419 129.934113 
" clip-path="url(#pa8715b688c)" style="fill: none; stroke: #ff0000"/>
    <path d="M 293.193907 144.858722 
L 293.193907 132.253205 
" clip-path="url(#pa8715b688c)" style="fill: none; stroke: #ff0000"/>
    <path d="M 301.318395 124.830489 
L 301.318395 112.224972 
" clip-path="url(#pa8715b688c)" style="fill: none; stroke: #ff0000"/>
    <path d="M 309.442883 123.182525 
L 309.442883 110.577008 
" clip-path="url(#pa8715b688c)" style="fill: none; stroke: #ff0000"/>
    <path d="M 317.567371 116.725353 
L 317.567371 104.119837 
" clip-path="url(#pa8715b688c)" style="fill: none; stroke: #ff0000"/>
    <path d="M 325.691859 111.552996 
L 325.691859 98.947479 
" clip-path="url(#pa8715b688c)" style="fill: none; stroke: #ff0000"/>
    <path d="M 333.816347 113.402576 
L 333.816347 100.797059 
" clip-path="url(#pa8715b688c)" style="fill: none; stroke: #ff0000"/>
    <path d="M 341.940835 100.27179 
L 341.940835 87.666273 
" clip-path="url(#pa8715b688c)" style="fill: none; stroke: #ff0000"/>
    <path d="M 350.065324 106.568087 
L 350.065324 93.96257 
" clip-path="url(#pa8715b688c)" style="fill: none; stroke: #ff0000"/>
    <path d="M 358.189812 95.471101 
L 358.189812 82.865585 
" clip-path="url(#pa8715b688c)" style="fill: none; stroke: #ff0000"/>
    <path d="M 366.3143 78.394274 
L 366.3143 65.788757 
" clip-path="url(#pa8715b688c)" style="fill: none; stroke: #ff0000"/>
    <path d="M 374.438788 88.665945 
L 374.438788 76.060429 
" clip-path="url(#pa8715b688c)" style="fill: none; stroke: #ff0000"/>
    <path d="M 382.563276 80.289307 
L 382.563276 67.683791 
" clip-path="url(#pa8715b688c)" style="fill: none; stroke: #ff0000"/>
    <path d="M 390.687764 71.937398 
L 390.687764 59.331881 
" clip-path="url(#pa8715b688c)" style="fill: none; stroke: #ff0000"/>
   </g>
   <g id="line2d_17">
    <path d="M 73.832727 282.104207 
L 398.487273 61.749566 
L 398.487273 61.749566 
" clip-path="url(#pa8715b688c)" style="fill: none; stroke: #000000; stroke-width: 1.5; stroke-linecap: square"/>
   </g>
   <g id="line2d_18">
    <defs>
     <path id="mc03201899e" d="M -1 1 
L 1 1 
L 1 -1 
L -1 -1 
z
" style="stroke: #ff0000; stroke-linejoin: miter"/>
    </defs>
    <g clip-path="url(#pa8715b688c)">
     <use xlink:href="#mc03201899e" x="73.832727" y="289.185242" style="fill: #ff0000; stroke: #ff0000; stroke-linejoin: miter"/>
     <use xlink:href="#mc03201899e" x="81.957215" y="281.45994" style="fill: #ff0000; stroke: #ff0000; stroke-linejoin: miter"/>
     <use xlink:href="#mc03201899e" x="90.081704" y="272.655686" style="fill: #ff0000; stroke: #ff0000; stroke-linejoin: miter"/>
     <use xlink:href="#mc03201899e" x="98.206192" y="267.089211" style="fill: #ff0000; stroke: #ff0000; stroke-linejoin: miter"/>
     <use xlink:href="#mc03201899e" x="106.33068" y="257.753752" style="fill: #ff0000; stroke: #ff0000; stroke-linejoin: miter"/>
     <use xlink:href="#mc03201899e" x="114.455168" y="261.822677" style="fill: #ff0000; stroke: #ff0000; stroke-linejoin: miter"/>
     <use xlink:href="#mc03201899e" x="122.579656" y="242.803919" style="fill: #ff0000; stroke: #ff0000; stroke-linejoin: miter"/>
     <use xlink:href="#mc03201899e" x="130.704144" y="235.596737" style="fill: #ff0000; stroke: #ff0000; stroke-linejoin: miter"/>
     <use xlink:href="#mc03201899e" x="138.828632" y="245.242873" style="fill: #ff0000; stroke: #ff0000; stroke-linejoin: miter"/>
     <use xlink:href="#mc03201899e" x="146.95312" y="237.213364" style="fill: #ff0000; stroke: #ff0000; stroke-linejoin: miter"/>
     <use xlink:href="#mc03201899e" x="155.077609" y="221.573452" style="fill: #ff0000; stroke: #ff0000; stroke-linejoin: miter"/>
     <use xlink:href="#mc03201899e" x="163.202097" y="217.454045" style="fill: #ff0000; stroke: #ff0000; stroke-linejoin: miter"/>
     <use xlink:href="#mc03201899e" x="171.326585" y="220.757324" style="fill: #ff0000; stroke: #ff0000; stroke-linejoin: miter"/>
     <use xlink:href="#mc03201899e" x="179.451073" y="202.105779" style="fill: #ff0000; stroke: #ff0000; stroke-linejoin: miter"/>
     <use xlink:href="#mc03201899e" x="187.575561" y="207.420541" style="fill: #ff0000; stroke: #ff0000; stroke-linejoin: miter"/>
     <use xlink:href="#mc03201899e" x="195.700049" y="194.739218" style="fill: #ff0000; stroke: #ff0000; stroke-linejoin: miter"/>
     <use xlink:href="#mc03201899e" x="203.824537" y="185.714904" style="fill: #ff0000; stroke: #ff0000; stroke-linejoin: miter"/>
     <use xlink:href="#mc03201899e" x="211.949025" y="192.747507" style="fill: #ff0000; stroke: #ff0000; stroke-linejoin: miter"/>
     <use xlink:href="#mc03201899e" x="220.073514" y="185.197328" style="fill: #ff0000; stroke: #ff0000; stroke-linejoin: miter"/>
     <use xlink:href="#mc03201899e" x="228.198002" y="181.9416" style="fill: #ff0000; stroke: #ff0000; stroke-linejoin: miter"/>
     <use xlink:href="#mc03201899e" x="236.32249" y="159.248032" style="fill: #ff0000; stroke: #ff0000; stroke-linejoin: miter"/>
     <use xlink:href="#mc03201899e" x="244.446978" y="169.41201" style="fill: #ff0000; stroke: #ff0000; stroke-linejoin: miter"/>
     <use xlink:href="#mc03201899e" x="252.571466" y="162.860699" style="fill: #ff0000; stroke: #ff0000; stroke-linejoin: miter"/>
     <use xlink:href="#mc03201899e" x="260.695954" y="159.849513" style="fill: #ff0000; stroke: #ff0000; stroke-linejoin: miter"/>
     <use xlink:href="#mc03201899e" x="268.820442" y="153.337985" style="fill: #ff0000; stroke: #ff0000; stroke-linejoin: miter"/>
     <use xlink:href="#mc03201899e" x="276.94493" y="143.046794" style="fill: #ff0000; stroke: #ff0000; stroke-linejoin: miter"/>
     <use xlink:href="#mc03201899e" x="285.069419" y="136.236872" style="fill: #ff0000; stroke: #ff0000; stroke-linejoin: miter"/>
     <use xlink:href="#mc03201899e" x="293.193907" y="138.555963" style="fill: #ff0000; stroke: #ff0000; stroke-linejoin: miter"/>
     <use xlink:href="#mc03201899e" x="301.318395" y="118.527731" style="fill: #ff0000; stroke: #ff0000; stroke-linejoin: miter"/>
     <use xlink:href="#mc03201899e" x="309.442883" y="116.879766" style="fill: #ff0000; stroke: #ff0000; stroke-linejoin: miter"/>
     <use xlink:href="#mc03201899e" x="317.567371" y="110.422595" style="fill: #ff0000; stroke: #ff0000; stroke-linejoin: miter"/>
     <use xlink:href="#mc03201899e" x="325.691859" y="105.250237" style="fill: #ff0000; stroke: #ff0000; stroke-linejoin: miter"/>
     <use xlink:href="#mc03201899e" x="333.816347" y="107.099818" style="fill: #ff0000; stroke: #ff0000; stroke-linejoin: miter"/>
     <use xlink:href="#mc03201899e" x="341.940835" y="93.969031" style="fill: #ff0000; stroke: #ff0000; stroke-linejoin: miter"/>
     <use xlink:href="#mc03201899e" x="350.065324" y="100.265328" style="fill: #ff0000; stroke: #ff0000; stroke-linejoin: miter"/>
     <use xlink:href="#mc03201899e" x="358.189812" y="89.168343" style="fill: #ff0000; stroke: #ff0000; stroke-linejoin: miter"/>
     <use xlink:href="#mc03201899e" x="366.3143" y="72.091515" style="fill: #ff0000; stroke: #ff0000; stroke-linejoin: miter"/>
     <use xlink:href="#mc03201899e" x="374.438788" y="82.363187" style="fill: #ff0000; stroke: #ff0000; stroke-linejoin: miter"/>
     <use xlink:href="#mc03201899e" x="382.563276" y="73.986549" style="fill: #ff0000; stroke: #ff0000; stroke-linejoin: miter"/>
     <use xlink:href="#mc03201899e" x="390.687764" y="65.634639" style="fill: #ff0000; stroke: #ff0000; stroke-linejoin: miter"/>
    </g>
   </g>
   <g id="patch_3">
    <path d="M 57.6 307.584 
L 57.6 41.472 
" style="fill: none; stroke: #000000; stroke-width: 0.8; stroke-linejoin: miter; stroke-linecap: square"/>
   </g>
   <g id="patch_4">
    <path d="M 414.72 307.584 
L 414.72 41.472 
" style="fill: none; stroke: #000000; stroke-width: 0.8; stroke-linejoin: miter; stroke-linecap: square"/>
   </g>
   <g id="patch_5">
    <path d="M 57.6 307.584 
L 414.72 307.584 
" style="fill: none; stroke: #000000; stroke-width: 0.8; stroke-linejoin: miter; stroke-linecap: square"/>
   </g>
   <g id="patch_6">
    <path d="M 57.6 41.472 
L 414.72 41.472 
" style="fill: none; stroke: #000000; stroke-width: 0.8; stroke-linejoin: miter; stroke-linecap: square"/>
   </g>
   <g id="legend_1">
    <g id="patch_7">
     <path d="M 64.6 93.506375 
L 218.096875 93.506375 
Q 220.096875 93.506375 220.096875 91.506375 
L 220.096875 48.472 
Q 220.096875 46.472 218.096875 46.472 
L 64.6 46.472 
Q 62.6 46.472 62.6 48.472 
L 62.6 91.506375 
Q 62.6 93.506375 64.6 93.506375 
z
" style="fill: #ffffff; opacity: 0.8; stroke: #cccccc; stroke-linejoin: miter"/>
    </g>
    <g id="line2d_19">
     <path d="M 66.6 54.570438 
L 76.6 54.570438 
L 86.6 54.570438 
" style="fill: none; stroke: #008000; stroke-width: 0.5; stroke-linecap: square"/>
    </g>
    <g id="text_16">
     <!-- Original Data with Noise -->
     <g transform="translate(94.6 58.070438) scale(0.1 -0.1)">
      <defs>
       <path id="DejaVuSans-4f" d="M 2522 4238 
Q 1834 4238 1429 3725 
Q 1025 3213 1025 2328 
Q 1025 1447 1429 934 
Q 1834 422 2522 422 
Q 3209 422 3611 934 
Q 4013 1447 4013 2328 
Q 4013 3213 3611 3725 
Q 3209 4238 2522 4238 
z
M 2522 4750 
Q 3503 4750 4090 4092 
Q 4678 3434 4678 2328 
Q 4678 1225 4090 567 
Q 3503 -91 2522 -91 
Q 1538 -91 948 565 
Q 359 1222 359 2328 
Q 359 3434 948 4092 
Q 1538 4750 2522 4750 
z
" transform="scale(0.015625)"/>
       <path id="DejaVuSans-72" d="M 2631 2963 
Q 2534 3019 2420 3045 
Q 2306 3072 2169 3072 
Q 1681 3072 1420 2755 
Q 1159 2438 1159 1844 
L 1159 0 
L 581 0 
L 581 3500 
L 1159 3500 
L 1159 2956 
Q 1341 3275 1631 3429 
Q 1922 3584 2338 3584 
Q 2397 3584 2469 3576 
Q 2541 3569 2628 3553 
L 2631 2963 
z
" transform="scale(0.015625)"/>
       <path id="DejaVuSans-69" d="M 603 3500 
L 1178 3500 
L 1178 0 
L 603 0 
L 603 3500 
z
M 603 4863 
L 1178 4863 
L 1178 4134 
L 603 4134 
L 603 4863 
z
" transform="scale(0.015625)"/>
       <path id="DejaVuSans-67" d="M 2906 1791 
Q 2906 2416 2648 2759 
Q 2391 3103 1925 3103 
Q 1463 3103 1205 2759 
Q 947 2416 947 1791 
Q 947 1169 1205 825 
Q 1463 481 1925 481 
Q 2391 481 2648 825 
Q 2906 1169 2906 1791 
z
M 3481 434 
Q 3481 -459 3084 -895 
Q 2688 -1331 1869 -1331 
Q 1566 -1331 1297 -1286 
Q 1028 -1241 775 -1147 
L 775 -588 
Q 1028 -725 1275 -790 
Q 1522 -856 1778 -856 
Q 2344 -856 2625 -561 
Q 2906 -266 2906 331 
L 2906 616 
Q 2728 306 2450 153 
Q 2172 0 1784 0 
Q 1141 0 747 490 
Q 353 981 353 1791 
Q 353 2603 747 3093 
Q 1141 3584 1784 3584 
Q 2172 3584 2450 3431 
Q 2728 3278 2906 2969 
L 2906 3500 
L 3481 3500 
L 3481 434 
z
" transform="scale(0.015625)"/>
       <path id="DejaVuSans-6e" d="M 3513 2113 
L 3513 0 
L 2938 0 
L 2938 2094 
Q 2938 2591 2744 2837 
Q 2550 3084 2163 3084 
Q 1697 3084 1428 2787 
Q 1159 2491 1159 1978 
L 1159 0 
L 581 0 
L 581 3500 
L 1159 3500 
L 1159 2956 
Q 1366 3272 1645 3428 
Q 1925 3584 2291 3584 
Q 2894 3584 3203 3211 
Q 3513 2838 3513 2113 
z
" transform="scale(0.015625)"/>
       <path id="DejaVuSans-61" d="M 2194 1759 
Q 1497 1759 1228 1600 
Q 959 1441 959 1056 
Q 959 750 1161 570 
Q 1363 391 1709 391 
Q 2188 391 2477 730 
Q 2766 1069 2766 1631 
L 2766 1759 
L 2194 1759 
z
M 3341 1997 
L 3341 0 
L 2766 0 
L 2766 531 
Q 2569 213 2275 61 
Q 1981 -91 1556 -91 
Q 1019 -91 701 211 
Q 384 513 384 1019 
Q 384 1609 779 1909 
Q 1175 2209 1959 2209 
L 2766 2209 
L 2766 2266 
Q 2766 2663 2505 2880 
Q 2244 3097 1772 3097 
Q 1472 3097 1187 3025 
Q 903 2953 641 2809 
L 641 3341 
Q 956 3463 1253 3523 
Q 1550 3584 1831 3584 
Q 2591 3584 2966 3190 
Q 3341 2797 3341 1997 
z
" transform="scale(0.015625)"/>
       <path id="DejaVuSans-6c" d="M 603 4863 
L 1178 4863 
L 1178 0 
L 603 0 
L 603 4863 
z
" transform="scale(0.015625)"/>
       <path id="DejaVuSans-20" transform="scale(0.015625)"/>
       <path id="DejaVuSans-44" d="M 1259 4147 
L 1259 519 
L 2022 519 
Q 2988 519 3436 956 
Q 3884 1394 3884 2338 
Q 3884 3275 3436 3711 
Q 2988 4147 2022 4147 
L 1259 4147 
z
M 628 4666 
L 1925 4666 
Q 3281 4666 3915 4102 
Q 4550 3538 4550 2338 
Q 4550 1131 3912 565 
Q 3275 0 1925 0 
L 628 0 
L 628 4666 
z
" transform="scale(0.015625)"/>
       <path id="DejaVuSans-74" d="M 1172 4494 
L 1172 3500 
L 2356 3500 
L 2356 3053 
L 1172 3053 
L 1172 1153 
Q 1172 725 1289 603 
Q 1406 481 1766 481 
L 2356 481 
L 2356 0 
L 1766 0 
Q 1100 0 847 248 
Q 594 497 594 1153 
L 594 3053 
L 172 3053 
L 172 3500 
L 594 3500 
L 594 4494 
L 1172 4494 
z
" transform="scale(0.015625)"/>
       <path id="DejaVuSans-77" d="M 269 3500 
L 844 3500 
L 1563 769 
L 2278 3500 
L 2956 3500 
L 3675 769 
L 4391 3500 
L 4966 3500 
L 4050 0 
L 3372 0 
L 2619 2869 
L 1863 0 
L 1184 0 
L 269 3500 
z
" transform="scale(0.015625)"/>
       <path id="DejaVuSans-68" d="M 3513 2113 
L 3513 0 
L 2938 0 
L 2938 2094 
Q 2938 2591 2744 2837 
Q 2550 3084 2163 3084 
Q 1697 3084 1428 2787 
Q 1159 2491 1159 1978 
L 1159 0 
L 581 0 
L 581 4863 
L 1159 4863 
L 1159 2956 
Q 1366 3272 1645 3428 
Q 1925 3584 2291 3584 
Q 2894 3584 3203 3211 
Q 3513 2838 3513 2113 
z
" transform="scale(0.015625)"/>
       <path id="DejaVuSans-4e" d="M 628 4666 
L 1478 4666 
L 3547 763 
L 3547 4666 
L 4159 4666 
L 4159 0 
L 3309 0 
L 1241 3903 
L 1241 0 
L 628 0 
L 628 4666 
z
" transform="scale(0.015625)"/>
       <path id="DejaVuSans-6f" d="M 1959 3097 
Q 1497 3097 1228 2736 
Q 959 2375 959 1747 
Q 959 1119 1226 758 
Q 1494 397 1959 397 
Q 2419 397 2687 759 
Q 2956 1122 2956 1747 
Q 2956 2369 2687 2733 
Q 2419 3097 1959 3097 
z
M 1959 3584 
Q 2709 3584 3137 3096 
Q 3566 2609 3566 1747 
Q 3566 888 3137 398 
Q 2709 -91 1959 -91 
Q 1206 -91 779 398 
Q 353 888 353 1747 
Q 353 2609 779 3096 
Q 1206 3584 1959 3584 
z
" transform="scale(0.015625)"/>
       <path id="DejaVuSans-73" d="M 2834 3397 
L 2834 2853 
Q 2591 2978 2328 3040 
Q 2066 3103 1784 3103 
Q 1356 3103 1142 2972 
Q 928 2841 928 2578 
Q 928 2378 1081 2264 
Q 1234 2150 1697 2047 
L 1894 2003 
Q 2506 1872 2764 1633 
Q 3022 1394 3022 966 
Q 3022 478 2636 193 
Q 2250 -91 1575 -91 
Q 1294 -91 989 -36 
Q 684 19 347 128 
L 347 722 
Q 666 556 975 473 
Q 1284 391 1588 391 
Q 1994 391 2212 530 
Q 2431 669 2431 922 
Q 2431 1156 2273 1281 
Q 2116 1406 1581 1522 
L 1381 1569 
Q 847 1681 609 1914 
Q 372 2147 372 2553 
Q 372 3047 722 3315 
Q 1072 3584 1716 3584 
Q 2034 3584 2315 3537 
Q 2597 3491 2834 3397 
z
" transform="scale(0.015625)"/>
       <path id="DejaVuSans-65" d="M 3597 1894 
L 3597 1613 
L 953 1613 
Q 991 1019 1311 708 
Q 1631 397 2203 397 
Q 2534 397 2845 478 
Q 3156 559 3463 722 
L 3463 178 
Q 3153 47 2828 -22 
Q 2503 -91 2169 -91 
Q 1331 -91 842 396 
Q 353 884 353 1716 
Q 353 2575 817 3079 
Q 1281 3584 2069 3584 
Q 2775 3584 3186 3129 
Q 3597 2675 3597 1894 
z
M 3022 2063 
Q 3016 2534 2758 2815 
Q 2500 3097 2075 3097 
Q 1594 3097 1305 2825 
Q 1016 2553 972 2059 
L 3022 2063 
z
" transform="scale(0.015625)"/>
      </defs>
      <use xlink:href="#DejaVuSans-4f"/>
      <use xlink:href="#DejaVuSans-72" x="78.710938"/>
      <use xlink:href="#DejaVuSans-69" x="119.824219"/>
      <use xlink:href="#DejaVuSans-67" x="147.607422"/>
      <use xlink:href="#DejaVuSans-69" x="211.083984"/>
      <use xlink:href="#DejaVuSans-6e" x="238.867188"/>
      <use xlink:href="#DejaVuSans-61" x="302.246094"/>
      <use xlink:href="#DejaVuSans-6c" x="363.525391"/>
      <use xlink:href="#DejaVuSans-20" x="391.308594"/>
      <use xlink:href="#DejaVuSans-44" x="423.095703"/>
      <use xlink:href="#DejaVuSans-61" x="500.097656"/>
      <use xlink:href="#DejaVuSans-74" x="561.376953"/>
      <use xlink:href="#DejaVuSans-61" x="600.585938"/>
      <use xlink:href="#DejaVuSans-20" x="661.865234"/>
      <use xlink:href="#DejaVuSans-77" x="693.652344"/>
      <use xlink:href="#DejaVuSans-69" x="775.439453"/>
      <use xlink:href="#DejaVuSans-74" x="803.222656"/>
      <use xlink:href="#DejaVuSans-68" x="842.431641"/>
      <use xlink:href="#DejaVuSans-20" x="905.810547"/>
      <use xlink:href="#DejaVuSans-4e" x="937.597656"/>
      <use xlink:href="#DejaVuSans-6f" x="1012.402344"/>
      <use xlink:href="#DejaVuSans-69" x="1073.583984"/>
      <use xlink:href="#DejaVuSans-73" x="1101.367188"/>
      <use xlink:href="#DejaVuSans-65" x="1153.466797"/>
     </g>
    </g>
    <g id="line2d_20">
     <path d="M 66.6 69.248563 
L 76.6 69.248563 
L 86.6 69.248563 
" style="fill: none; stroke: #000000; stroke-width: 1.5; stroke-linecap: square"/>
    </g>
    <g id="text_17">
     <!-- Estimated Line -->
     <g transform="translate(94.6 72.748563) scale(0.1 -0.1)">
      <defs>
       <path id="DejaVuSans-45" d="M 628 4666 
L 3578 4666 
L 3578 4134 
L 1259 4134 
L 1259 2753 
L 3481 2753 
L 3481 2222 
L 1259 2222 
L 1259 531 
L 3634 531 
L 3634 0 
L 628 0 
L 628 4666 
z
" transform="scale(0.015625)"/>
       <path id="DejaVuSans-6d" d="M 3328 2828 
Q 3544 3216 3844 3400 
Q 4144 3584 4550 3584 
Q 5097 3584 5394 3201 
Q 5691 2819 5691 2113 
L 5691 0 
L 5113 0 
L 5113 2094 
Q 5113 2597 4934 2840 
Q 4756 3084 4391 3084 
Q 3944 3084 3684 2787 
Q 3425 2491 3425 1978 
L 3425 0 
L 2847 0 
L 2847 2094 
Q 2847 2600 2669 2842 
Q 2491 3084 2119 3084 
Q 1678 3084 1418 2786 
Q 1159 2488 1159 1978 
L 1159 0 
L 581 0 
L 581 3500 
L 1159 3500 
L 1159 2956 
Q 1356 3278 1631 3431 
Q 1906 3584 2284 3584 
Q 2666 3584 2933 3390 
Q 3200 3197 3328 2828 
z
" transform="scale(0.015625)"/>
       <path id="DejaVuSans-64" d="M 2906 2969 
L 2906 4863 
L 3481 4863 
L 3481 0 
L 2906 0 
L 2906 525 
Q 2725 213 2448 61 
Q 2172 -91 1784 -91 
Q 1150 -91 751 415 
Q 353 922 353 1747 
Q 353 2572 751 3078 
Q 1150 3584 1784 3584 
Q 2172 3584 2448 3432 
Q 2725 3281 2906 2969 
z
M 947 1747 
Q 947 1113 1208 752 
Q 1469 391 1925 391 
Q 2381 391 2643 752 
Q 2906 1113 2906 1747 
Q 2906 2381 2643 2742 
Q 2381 3103 1925 3103 
Q 1469 3103 1208 2742 
Q 947 2381 947 1747 
z
" transform="scale(0.015625)"/>
       <path id="DejaVuSans-4c" d="M 628 4666 
L 1259 4666 
L 1259 531 
L 3531 531 
L 3531 0 
L 628 0 
L 628 4666 
z
" transform="scale(0.015625)"/>
      </defs>
      <use xlink:href="#DejaVuSans-45"/>
      <use xlink:href="#DejaVuSans-73" x="63.183594"/>
      <use xlink:href="#DejaVuSans-74" x="115.283203"/>
      <use xlink:href="#DejaVuSans-69" x="154.492188"/>
      <use xlink:href="#DejaVuSans-6d" x="182.275391"/>
      <use xlink:href="#DejaVuSans-61" x="279.6875"/>
      <use xlink:href="#DejaVuSans-74" x="340.966797"/>
      <use xlink:href="#DejaVuSans-65" x="380.175781"/>
      <use xlink:href="#DejaVuSans-64" x="441.699219"/>
      <use xlink:href="#DejaVuSans-20" x="505.175781"/>
      <use xlink:href="#DejaVuSans-4c" x="536.962891"/>
      <use xlink:href="#DejaVuSans-69" x="592.675781"/>
      <use xlink:href="#DejaVuSans-6e" x="620.458984"/>
      <use xlink:href="#DejaVuSans-65" x="683.837891"/>
     </g>
    </g>
    <g id="LineCollection_2">
     <path d="M 76.6 88.926688 
L 76.6 78.926688 
" style="fill: none; stroke: #ff0000"/>
    </g>
    <g id="line2d_21"/>
    <g id="line2d_22">
     <g>
      <use xlink:href="#mc03201899e" x="76.6" y="83.926688" style="fill: #ff0000; stroke: #ff0000; stroke-linejoin: miter"/>
     </g>
    </g>
    <g id="text_18">
     <!-- Errorbar -->
     <g transform="translate(94.6 87.426688) scale(0.1 -0.1)">
      <defs>
       <path id="DejaVuSans-62" d="M 3116 1747 
Q 3116 2381 2855 2742 
Q 2594 3103 2138 3103 
Q 1681 3103 1420 2742 
Q 1159 2381 1159 1747 
Q 1159 1113 1420 752 
Q 1681 391 2138 391 
Q 2594 391 2855 752 
Q 3116 1113 3116 1747 
z
M 1159 2969 
Q 1341 3281 1617 3432 
Q 1894 3584 2278 3584 
Q 2916 3584 3314 3078 
Q 3713 2572 3713 1747 
Q 3713 922 3314 415 
Q 2916 -91 2278 -91 
Q 1894 -91 1617 61 
Q 1341 213 1159 525 
L 1159 0 
L 581 0 
L 581 4863 
L 1159 4863 
L 1159 2969 
z
" transform="scale(0.015625)"/>
      </defs>
      <use xlink:href="#DejaVuSans-45"/>
      <use xlink:href="#DejaVuSans-72" x="63.183594"/>
      <use xlink:href="#DejaVuSans-72" x="102.546875"/>
      <use xlink:href="#DejaVuSans-6f" x="141.410156"/>
      <use xlink:href="#DejaVuSans-72" x="202.591797"/>
      <use xlink:href="#DejaVuSans-62" x="243.705078"/>
      <use xlink:href="#DejaVuSans-61" x="307.181641"/>
      <use xlink:href="#DejaVuSans-72" x="368.460938"/>
     </g>
    </g>
   </g>
  </g>
 </g>
 <defs>
  <clipPath id="pa8715b688c">
   <rect x="57.6" y="41.472" width="357.12" height="266.112"/>
  </clipPath>
 </defs>
</svg>
